# xmcd
#
# Track frame offsets:
# 150
# 13285
# 26651
# 44685
# 62505
# 90336
# 108824
# 124581
# 139724
# 159154
# 177314
# 198842
# 217007
# 244918
#
# Disc length: 3666 seconds
#
# Revision: 3
# Processed by: cddbd v1.5.2PL0 Copyright (c) Steve Scherf et al.
# Submitted via: Axialis_AX_CDPlayer 2.6
#
DISCID=b90e500e
DTITLE=Andre Hazes - Live in Amsterdam Arena 2003
DYEAR=2003
DGENRE=Vocal
TTITLE0=Opening
TTITLE1=Come Prima
TTITLE2=N'Beetje Verliefd
TTITLE3=Het is koud zonder jou
TTITLE4=Medley 
TTITLE5=Zij gelooft in mij
TTITLE6=Zeg maar niets meer
TTITLE7=Volare
TTITLE8=Geef mij je angst
TTITLE9=Ik meen 't
TTITLE10=Bloed, Zweet en Tranen
TTITLE11=De Vlieger
TTITLE12=Buona Sera - Oh Marie
TTITLE13=Het is te laat
EXTD=
EXTT0=
EXTT1=
EXTT2=
EXTT3=
EXTT4='n vriend - zo heb ik het nooit bedoeld - glimlach van een kind - diep
EXTT4=\nin mijn hart - zondag - zomer
EXTT5=
EXTT6=
EXTT7=
EXTT8=
EXTT9=
EXTT10=
EXTT11=
EXTT12=
EXTT13=
PLAYORDER=
